<svg width="28" height="28" viewBox="0 0 28 28" fill="none" xmlns="http://www.w3.org/2000/svg">
<path fill-rule="evenodd" clip-rule="evenodd" d="M9.33301 4.6666C8.09533 4.6666 6.90835 5.15827 6.03318 6.03344C5.15801 6.90861 4.66634 8.09559 4.66634 9.33327C4.66634 10.5709 5.15801 11.7579 6.03318 12.6331C6.90835 13.5083 8.09533 13.9999 9.33301 13.9999C10.5707 13.9999 11.7577 13.5083 12.6328 12.6331C13.508 11.7579 13.9997 10.5709 13.9997 9.33327C13.9997 8.09559 13.508 6.90861 12.6328 6.03344C11.7577 5.15827 10.5707 4.6666 9.33301 4.6666ZM6.99967 15.1666C5.762 15.1666 4.57501 15.6583 3.69984 16.5334C2.82467 17.4086 2.33301 18.5956 2.33301 19.8333V20.9999C2.33301 21.6188 2.57884 22.2123 3.01643 22.6498C3.45401 23.0874 4.0475 23.3333 4.66634 23.3333H13.9997C14.6185 23.3333 15.212 23.0874 15.6496 22.6498C16.0872 22.2123 16.333 21.6188 16.333 20.9999V19.8333C16.333 18.5956 15.8413 17.4086 14.9662 16.5334C14.091 15.6583 12.904 15.1666 11.6663 15.1666H6.99967ZM15.458 12.7224C16.0157 11.7191 16.333 10.5641 16.333 9.33327C16.3333 8.14728 16.0322 6.98067 15.458 5.94293C16.1205 5.31612 16.9521 4.89715 17.85 4.7378C18.748 4.57846 19.673 4.68572 20.5107 5.04633C21.3483 5.40695 22.062 6.00511 22.5634 6.76689C23.0648 7.52867 23.3321 8.42069 23.3321 9.33268C23.3321 10.2447 23.0648 11.1367 22.5634 11.8985C22.062 12.6603 21.3483 13.2584 20.5107 13.619C19.673 13.9797 18.748 14.0869 17.85 13.9276C16.9521 13.7682 16.1205 13.3492 15.458 12.7224ZM18.0433 23.3333C18.44 22.6473 18.6675 21.8504 18.6675 20.9999V19.8333C18.6697 18.111 18.0347 16.4488 16.8848 15.1666H20.9997C22.2374 15.1666 23.4243 15.6583 24.2995 16.5334C25.1747 17.4086 25.6663 18.5956 25.6663 19.8333V20.9999C25.6663 21.6188 25.4205 22.2123 24.9829 22.6498C24.5453 23.0874 23.9518 23.3333 23.333 23.3333H18.0433Z" fill="#F72793"/>
</svg>
